# xmcd
#
# Track frame offsets: 
#        150
#        24947
#        35517
#        55585
#        72197
#        89100
#        109950
#        130110
#        140662
#        157585
#        168230
#        187970
#        196722
#        211545
#        227577
#        240515
#        254010
#
# Disc length: 3554 seconds
#
# Revision: 0
# Processed by: cddbd v1.5.2PL0 Copyright (c) Steve Scherf et al.
# Submitted via: ExactAudioCopyFreeDBPlugin 1.0
#
DISCID=d90de011
DTITLE=Various Artist - Puro Blues - 50 Clásicos de Leyenda Vol.3
DYEAR=1998
DGENRE=Blues
TTITLE0=Roy Brown - Boogie Woogie Blues
TTITLE1=Jimmy Reed - Ain't That Lovin' You Baby
TTITLE2=Pinetop Perkins - Just Keep on Drinking
TTITLE3=Lightning Slim - Crazy About You Babe
TTITLE4=John Lee Hooker - My First Wife Left Me
TTITLE5=Greg Smith - Low Down
TTITLE6=Rita Coolidge - Out Of The Blues
TTITLE7=Canned Heat - Dimples
TTITLE8=Howlin' Wolf - All My Life
TTITLE9=Lightnin' Hopkins - Nothing But The Blues
TTITLE10=Screamin' Jay Hawkins - The Rose
TTITLE11=John Lee Hooker - Hobo Blues
TTITLE12=Johnny Winter - Let The Music Play
TTITLE13=Jimmy Witherspoon - Ain't Nobody's Business
TTITLE14=Jimmy Reed - Shame, Shame, Shame
TTITLE15=Lightning Slim - That's All Right
TTITLE16=John Lee Hooker - I'm In The Mood
EXTD=
EXTT0=
EXTT1=
EXTT2=
EXTT3=
EXTT4=
EXTT5=
EXTT6=
EXTT7=
EXTT8=
EXTT9=
EXTT10=
EXTT11=
EXTT12=
EXTT13=
EXTT14=
EXTT15=
EXTT16=
PLAYORDER=
